<svg id="图层_6" data-name="图层 6" xmlns="http://www.w3.org/2000/svg" viewBox="0 0 820.93843 820.87645"><defs><style>.cls-1,.cls-3{fill:#409eff;}.cls-2{fill:#fff;}.cls-3{stroke:#fff;stroke-miterlimit:10;stroke-width:5px;}</style></defs><title>CHDNSLCYAN</title><g id="轮廓"><path class="cls-1" d="M515.8252,80.77643C280.10352,75.11389,98.40308,264.45721,94.17413,482.17694,89.64905,715.14722,279.11053,902.064,504.663,901.52789c224.86481-.30566,405.2002-180.87817,410.25483-399.69818C920.36786,265.89587,731.8269,85.96527,515.8252,80.77643ZM494.23535,893.82007c-213.10858-4.869-397.39911-181.92932-392.29974-413.1944C106.6452,267.03656,285.13287,82.83881,515.75989,88.51892c212.75451,5.24,391.82538,180.83008,391.47839,402.85541C908.00146,711.91876,725.6532,899.1073,494.23535,893.82007Z" transform="translate(-94.09471 -80.65259)"/></g><g id="主体"><path class="cls-1" d="M671.60077,322.54718q-79.31332-24.84311-158.61646-49.71912a20.64815,20.64815,0,0,0-12.97656.10291q-78.38983,24.72492-156.82953,49.291c-7.00781,2.2002-9.65783,6.49054-8.84167,13.85968.72113,6.51105,28.67071,312.13971,30.13757,327.26954.47888,4.94073,2.56567,8.90808,7.76849,10.35418q64.695,17.98315,129.38862,35.97144a19.71314,19.71314,0,0,0,10.97436.06354c43.15613-11.89716,88.37238-24.21814,131.51727-36.15522a6.99984,6.99984,0,0,0,5.31079-6.49084c1.49256-14.42407,29.56708-325.32532,30.32105-333.8468C679.15088,328.644,678.06677,324.57251,671.60077,322.54718Z" transform="translate(-94.09471 -80.65259)"/><path class="cls-1" d="M506.666,201.097c-157.40113,0-285,127.59888-285,285s127.59887,285,285,285,285-127.59881,285-285S664.0672,201.097,506.666,201.097ZM665.26245,686.64246a7.77768,7.77768,0,0,1-5.90088,7.21209c-47.93878,13.26343-98.179,26.95337-146.13031,40.17243a21.90288,21.90288,0,0,1-12.19372-.07062Q429.1767,713.89422,357.27246,693.9881c-5.78094-1.60675-8.09955-6.01489-8.63171-11.50464-1.62976-16.81091-32.68494-356.39832-33.48621-363.63281-.9068-8.18793,2.03772-12.955,9.8241-15.39966q87.13605-27.35679,174.25506-54.76776a22.9427,22.9427,0,0,1,14.41834-.11432q88.08957,27.71979,176.2406,55.24353c7.18439,2.25037,8.389,6.77423,9.05987,11.88916C698.11481,325.16986,666.92084,670.61572,665.26245,686.64246Z" transform="translate(-94.09471 -80.65259)"/></g><g id="帽子"><path class="cls-2" d="M509.54347,425.02748q-35.4518.00205-70.9036-.00186c-5.13939-.00159-5.12985-.01773-3.77379-4.92558q11.8704-42.96129,23.732-85.92494c1.29888-4.70394,1.29822-4.71366,5.78325-2.61414,31.86313,14.91588,63.72648,13.13831,95.58769.00077,5.10245-2.10394,5.12-2.126,6.32672,3.33779q9.37128,42.43187,18.71227,84.87037c1.14847,5.22249,1.10129,5.25143-4.11219,5.253Q545.21963,425.0338,509.54347,425.02748Z" transform="translate(-94.09471 -80.65259)"/><path class="cls-3" d="M486.41048,500.93757a36.51788,36.51788,0,0,1,11.79762,5.16364c2.91634,1.84086,5.65487,3.69845,8.54648,3.649,2.89935-.04953,5.952-2.01069,9.0402-3.63712a63.02055,63.02055,0,0,1,19.22367-6.76579c14.38685-2.23526,28.92572-2.16331,43.212,1.37974a47.03242,47.03242,0,0,1,9.2125,3.40876c7.52418,3.67035,11.36893,9.88869,10.26507,18.18867-.857,6.44473-1.951,13.159-4.59861,19.00173-5.45345,12.03458-17.50866,17.28946-32.96584,15.03019a77.93594,77.93594,0,0,1-42.39045-19.86592c-3.12157-2.87346-5.41126-6.69841-7.85724-10.24219-.97063-1.4063-1.747-4.6249-2.78527-4.67491-.88308-.04253-2.05352,2.87439-2.6487,4.02173-6.06871,11.69876-16.49629,18.299-27.79021,23.74715-9.35679,4.51366-19.20194,7.43554-29.76936,7.34172-14.16194-.12575-24.39191-7.44606-28.29755-21.02185a74.55972,74.55972,0,0,1-2.21066-14.56715c-.64085-7.93713,3.32929-13.40522,10.16308-16.94514,8.85487-4.58691,18.5314-5.48382,28.26136-6.0215,2.08829-.11538,4.18839-.0168,6.28307-.0168C461.13851,497.842,478.1076,499.251,486.41048,500.93757Z" transform="translate(-94.09471 -80.65259)"/><path class="cls-2" d="M645.76175,479.28965c-92.98227-7.22568-184.89048-7.103-277.134-.77848,4.70013-3.0317,9.42242-6.02972,14.09605-9.10175,11.74074-7.71716,23.40538-15.55237,35.2398-23.12255a13.80553,13.80553,0,0,1,7.03987-2.0584q86.15363-.16844,172.30742.01926a12.87909,12.87909,0,0,1,7.22146,2.53451c12.85795,9.75912,25.52748,19.76652,38.2459,29.709C643.56454,477.10592,644.24386,477.85747,645.76175,479.28965Z" transform="translate(-94.09471 -80.65259)"/><path class="cls-2" d="M471.1123,585.96191a3.14539,3.14539,0,0,1-1.29687,2.56739,4.409,4.409,0,0,1-2.875.99511,4.28517,4.28517,0,0,1-2.84375-.98046l-5.1875,13.68652a2.60975,2.60975,0,0,1-2.54688,1.97363q-2.4375,0-2.89062-2.0039l-2.59375-11.68165-3.51563,9.88575a4.62818,4.62818,0,0,1-2.09375,2.46386,6.11609,6.11609,0,0,1-3.21875.876h-7.42187a12.54969,12.54969,0,0,1,1.17187-2.30078,2.63515,2.63515,0,0,1,2.15625-1.291,12.892,12.892,0,0,1,2.27344.30371,12.84768,12.84768,0,0,0,2.30469.30469,2.4304,2.4304,0,0,0,2.32812-1.915l4.8125-13.25488a7.61221,7.61221,0,0,1,1.04688-2.21191,2.82561,2.82561,0,0,1,2.3125-.89063q2.35841,0,3.03125,3.16113l2.14062,10.15332,3.23438-8.624q1.79591-4.77978,5.46875-4.7793a4.51335,4.51335,0,0,1,2.89062.9795A3.17335,3.17335,0,0,1,471.1123,585.96191Z" transform="translate(-94.09471 -80.65259)"/><path class="cls-2" d="M483.19922,601.36914a2.95973,2.95973,0,0,1-1.5,1.7959,4.85071,4.85071,0,0,1-2.39063.5791h-8.70312q-7.59375,0-7.59375-4.34863a4.90485,4.90485,0,0,1,2.59375-4.37891,9.98278,9.98278,0,0,1,5.3125-1.36621h2.26562a9.64655,9.64655,0,0,1,3.48438.5791q1.99952.772,2.09375,2.34571a2.88985,2.88985,0,0,1-1.60938,2.6416h-5.17187l1.6875-3.19141h-3.29688l-1.28125,3.57715a1.71794,1.71794,0,0,0-.10937.56445q0,1.20264,2.03125,1.20215Z" transform="translate(-94.09471 -80.65259)"/><path class="cls-2" d="M495.39648,601.36914q-.73534,2.376-3.90625,2.375h-7.96875q-2.313,0-2.3125-1.54394a2.32573,2.32573,0,0,1,.17188-.83106l1.98437-5.34375h-2.5625l.98438-2.375a10.8712,10.8712,0,0,0,4.0625-1.707,14.176,14.176,0,0,0,3.20312-4.24512h3.04688l-2.20313,5.95215h4.03125a3.82333,3.82333,0,0,1-3.9375,2.375H488.959l-1.95312,5.34375Z" transform="translate(-94.09471 -80.65259)"/><path class="cls-2" d="M518.89063,593.65039l-2.82813,7.71875a4.00191,4.00191,0,0,1-3.89062,2.375h-7.90625q-2.07862,0-2.3125-1.30566a4.14413,4.14413,0,0,1-3.29688,1.30566H495.875q-2.313,0-2.3125-1.55859a2.29443,2.29443,0,0,1,.17188-.81641l2.84375-7.71875H502.25l-2.92187,7.71875h2.71875l2.92187-7.71875h5.59375l-2.84375,7.71875H510.375l2.90625-7.71875Z" transform="translate(-94.09471 -80.65259)"/><path class="cls-2" d="M545.29,593.65039q-.62548,2.376-3.75,2.375h-9.78125a2.32781,2.32781,0,0,1,.84375,1.19531,3.40293,3.40293,0,0,1,.26562,1.50684,5.02294,5.02294,0,0,1-2.29687,3.88867,9.06887,9.06887,0,0,1-5.15625,1.36524,9.56124,9.56124,0,0,1-5.67188-1.37989,3.84034,3.84034,0,0,1-1.76562-3.28027,4.20153,4.20153,0,0,1,.07812-.80176,5.16784,5.16784,0,0,1,2.34375-3.51855,9.91069,9.91069,0,0,1,5.5-1.35059Zm-17.03125,2.375h-3.57813l-1.40625,3.79981a1.63,1.63,0,0,0-.10937.56445q0,1.27734,2.5,1.27637.29736,0,.51562-.01465Z" transform="translate(-94.09471 -80.65259)"/><path class="cls-2" d="M553.9873,601.36914a2.05154,2.05154,0,0,1-1.20312,1.75195,4.33022,4.33022,0,0,1-2.21875.62305h-5.98438q-2.376,0-2.375-1.87012a2.95945,2.95945,0,0,1,.20313-1.02441l1.76562-4.82422h-3.32812l-1.73438,4.26074a1.81627,1.81627,0,0,1-1.89062,1.083h-1.65625l2.04687-5.34375a2.7216,2.7216,0,0,1-1.57031-.92773,2.50373,2.50373,0,0,1-.60156-1.65528,2.9005,2.9005,0,0,1,1.67187-2.6416,6.72234,6.72234,0,0,1,3.3125-.77246h2.53125l-1.3125,3.62207h8.64063l-2.84375,7.71875Z" transform="translate(-94.09471 -80.65259)"/><path class="cls-2" d="M573.82422,601.36914a3.0228,3.0228,0,0,1-1.79688,1.92969,5.05782,5.05782,0,0,1-2.10937.44531h-6.14063q-2.14013,0-2.14062-1.57324a3.04892,3.04892,0,0,1,.21875-1.06836l1.60937-4.1416q-.71923.71191-5.73437,4.958a10.92188,10.92188,0,0,1-1.875,1.39453,4.42184,4.42184,0,0,1-2.03125.43066h-2.32813l6.65625-17.90137h5.625l-4.15625,11.08789,6.23438-5.89257h3.59375l-3.625,3.5625h1.1875q2.17236,0,2.17187,1.58789a3.40655,3.40655,0,0,1-.25,1.17285l-1.53125,4.00781Z" transform="translate(-94.09471 -80.65259)"/><path class="cls-2" d="M469.7373,624.85156a3.18188,3.18188,0,0,1-1.22656,2.50879,4.68284,4.68284,0,0,1-5.88281,0,3.18846,3.18846,0,0,1-1.21875-2.50879,4.167,4.167,0,0,1,.125-.89062q-.70312-.06006-.89063-.05957-2.376,0-2.375,1.88476a15.87683,15.87683,0,0,0,1.39844,4.32032,14.868,14.868,0,0,1,1.39844,5.2539q0,4.06788-4.73438,6.10156a21.03941,21.03941,0,0,1-8.26562,1.499,23.65621,23.65621,0,0,1-7.67188-1.14356q-4.70361-1.60254-4.70312-4.92773,0-4.83839,8.67187-4.83887h5.95313l1.14062,2.375h-4.64062a7.40688,7.40688,0,0,0-3.04688.5791,2.416,2.416,0,0,0-1.6875,2.24121q0,1.67725,2.32813,2.627a10.13271,10.13271,0,0,0,3.84375.72754,8.02609,8.02609,0,0,0,4.32812-1.084,3.96982,3.96982,0,0,0,2.01563-3.57715,12.98136,12.98136,0,0,0-1.28125-4.60156,12.99087,12.99087,0,0,1-1.28125-4.66113q0-5.417,9.70312-5.418h3.85938a4.36665,4.36665,0,0,1,2.84375,1.02441A3.2576,3.2576,0,0,1,469.7373,624.85156Z" transform="translate(-94.09471 -80.65259)"/><path class="cls-2" d="M483.48047,639.76953a2.965,2.965,0,0,1-1.5,1.7959,4.8613,4.8613,0,0,1-2.39063.5791h-8.70312q-7.59375,0-7.59375-4.34961a4.9059,4.9059,0,0,1,2.59375-4.3789,9.9912,9.9912,0,0,1,5.3125-1.36524h2.26562a9.62548,9.62548,0,0,1,3.48438.5791q1.99952.772,2.09375,2.34473a2.89121,2.89121,0,0,1-1.60938,2.64258h-5.17187l1.6875-3.19141h-3.29688l-1.28125,3.57715a1.71338,1.71338,0,0,0-.10937.56445q0,1.20117,2.03125,1.20215Z" transform="translate(-94.09471 -80.65259)"/><path class="cls-2" d="M501.334,639.76953a3.02554,3.02554,0,0,1-1.4375,1.7959,4.56812,4.56812,0,0,1-2.32812.5791h-9.40625a10.56037,10.56037,0,0,1-4.51563-.86133,3.48032,3.48032,0,0,1-2.3125-3.26562,4.04164,4.04164,0,0,1,.03125-.48926,5.38569,5.38569,0,0,1,2.90625-4.15625,10.56769,10.56769,0,0,1,5.39063-1.32129h3.9375a3.36631,3.36631,0,0,1,2.26562.80176,2.484,2.484,0,0,1,.9375,1.959,2.53413,2.53413,0,0,1-.94531,1.98926,3.34258,3.34258,0,0,1-2.25781.81641,3.28072,3.28072,0,0,1-2.25781-.82422,2.53694,2.53694,0,0,1-.91407-2.01074v-.35645h-1.89062l-1.21875,3.28027a2.16525,2.16525,0,0,0-.15625.75684q0,1.30663,2.17187,1.30664Z" transform="translate(-94.09471 -80.65259)"/><path class="cls-2" d="M520.25,639.76953a2.95955,2.95955,0,0,1-1.4375,1.87012,3.66061,3.66061,0,0,1-1.85937.50488h-6.53125q-2.29687,0-2.29688-1.39551a4.15366,4.15366,0,0,1-3.29687,1.39551h-2.75a2.86569,2.86569,0,0,1-1.96875-.624,1.93882,1.93882,0,0,1-.65625-1.52832,3.01406,3.01406,0,0,1,.21875-1.09864l2.625-6.84277h5.67187l-2.92187,7.71875h3.17187l2.90625-7.71875h5.60938l-2.84375,7.71875Z" transform="translate(-94.09471 -80.65259)"/><path class="cls-2" d="M536.88379,639.76953a2.05026,2.05026,0,0,1-1.20313,1.751,4.31944,4.31944,0,0,1-2.21875.624h-5.98437q-2.37451,0-2.375-1.87012a2.95514,2.95514,0,0,1,.20312-1.02441l1.76563-4.82422h-3.32813l-1.73437,4.25977a1.81567,1.81567,0,0,1-1.89063,1.084h-1.65625l2.04688-5.34375a2.73287,2.73287,0,0,1-1.57031-.92773,2.51244,2.51244,0,0,1-.60157-1.65528,2.90454,2.90454,0,0,1,1.67188-2.64257,6.73271,6.73271,0,0,1,3.3125-.77149h2.53125l-1.3125,3.62207h8.64062l-2.84375,7.71875Z" transform="translate(-94.09471 -80.65259)"/><path class="cls-2" d="M547.19043,639.76953a3.10719,3.10719,0,0,1-1.6875,1.92969,4.53922,4.53922,0,0,1-2,.44531h-6.17188q-2.23535,0-2.23437-1.78125a3.08217,3.08217,0,0,1,.21875-1.084l2.71875-7.22852h5.67187l-2.89062,7.71875Zm-1.125-13.80469a3.21094,3.21094,0,0,1-1.21094,2.52344,4.64964,4.64964,0,0,1-5.85937,0,3.21947,3.21947,0,0,1,0-5.03223,4.64964,4.64964,0,0,1,5.85937,0A3.19678,3.19678,0,0,1,546.06543,625.96484Z" transform="translate(-94.09471 -80.65259)"/><path class="cls-2" d="M559.48047,639.76953q-.73389,2.37451-3.90625,2.375h-7.96875q-2.313,0-2.3125-1.54394a2.32592,2.32592,0,0,1,.17187-.83106l1.98438-5.34375h-2.5625l.98437-2.375a10.88,10.88,0,0,0,4.0625-1.707,14.20207,14.20207,0,0,0,3.20313-4.24512h3.04687l-2.20312,5.95215h4.03125a3.823,3.823,0,0,1-3.9375,2.375H553.043l-1.95313,5.34375Z" transform="translate(-94.09471 -80.65259)"/><path class="cls-2" d="M578.67773,639.76953a3.42076,3.42076,0,0,1-3.45312,2.375h-3.8125a17.49021,17.49021,0,0,1-2.85938,5.19531,6.694,6.694,0,0,1-5.20312,2.34473,4.03355,4.03355,0,0,1-3.01563-1.083,3.36882,3.36882,0,0,1-.92187-2.44922,5.21974,5.21974,0,0,1,.53906-2.30078,4.22262,4.22262,0,0,1,1.41406-1.707h-1.1875a2.48491,2.48491,0,0,1-1.71093-.60156,1.926,1.926,0,0,1-.67969-1.50684,2.46319,2.46319,0,0,1,.15625-.8457l2.71875-7.13965H566.334l-2.92187,7.71875H566.584l2.875-7.71875h5.64063l-2.875,7.71875Zm-13.07812,2.77539a2.477,2.477,0,0,0-1.91406,1.10645,3.53289,3.53289,0,0,0-.88282,2.2041,1.80482,1.80482,0,0,0,.90625,1.57324Z" transform="translate(-94.09471 -80.65259)"/></g><g id="文字"><path class="cls-1" d="M198.65332,611.31152l.48291,1.21582-20.73,19.3877a2.474,2.474,0,0,0-.543,2.96973l.332.835-1.36133.541-4.25683-10.708,1.36133-.541.33886.85254a5.88282,5.88282,0,0,0,1.30127,2.21484.89276.89276,0,0,0,.96778.16211,2.05,2.05,0,0,0,.603-.38672l4.81641-4.48633-4.2207-10.61718-3.7627.05273a6.80806,6.80806,0,0,0-2.26367.332,2.01841,2.01841,0,0,0-1.19629,1.43164,4.18433,4.18433,0,0,0,.3208,2.65821l.36035.90722-1.36084.541-3.86767-9.72852,1.36133-.541a4.33191,4.33191,0,0,0,1.66162,2.19726,6.4364,6.4364,0,0,0,3.25.6416Zm-5.3833,1.52735-13.87647-.06446,3.76856,9.4795Z" transform="translate(-94.09471 -80.65259)"/><path class="cls-1" d="M209.958,642.94238l3.03808.45313.63428,1.27637-9.376,4.78808-.57373-1.1543q3.79981-3.23877,4.73829-6.35449a7.74805,7.74805,0,0,0-.43457-5.87988,5.90646,5.90646,0,0,0-3.25977-3.09082,4.97956,4.97956,0,0,0-4.10889.209,4.65362,4.65362,0,0,0-1.90185,1.6416,4.60384,4.60384,0,0,0-.69434,2.42579,20.80259,20.80259,0,0,0,.833,4.80957,27.45331,27.45331,0,0,1,1.10986,7.00683,6.97083,6.97083,0,0,1-4.12646,6.35645,8.6736,8.6736,0,0,1-6.96729.52832,9.30057,9.30057,0,0,1-5.31982-4.93653,11.42171,11.42171,0,0,1-.86914-8.248l-3.39551-.77735-.62549-1.25976,10.02295-4.97852.62549,1.25977a12.71972,12.71972,0,0,0-4.90869,6.53808,9.15334,9.15334,0,0,0,.4624,6.94532,6.62278,6.62278,0,0,0,3.62842,3.46386,5.47012,5.47012,0,0,0,4.52978-.21093,4.34315,4.34315,0,0,0,1.87354-1.69336,5.18428,5.18428,0,0,0,.60986-2.72364,33.53079,33.53079,0,0,0-1.0498-5.999q-1.11475-4.79-.62793-6.97168A6.87384,6.87384,0,0,1,197.794,631.668a8.32745,8.32745,0,0,1,11.61572,3.8916,9.36934,9.36934,0,0,1,.96045,3.38281A12.21447,12.21447,0,0,1,209.958,642.94238Z" transform="translate(-94.09471 -80.65259)"/><path class="cls-1" d="M222.544,665.06836l3.06445.21875.73047,1.22461-8.98145,5.49316-.66064-1.10644q3.53979-3.52149,4.23681-6.7002a7.74689,7.74689,0,0,0-.88427-5.8291,5.90937,5.90937,0,0,0-3.48731-2.832,4.9837,4.9837,0,0,0-4.08056.52344,4.65669,4.65669,0,0,0-1.77051,1.7832,4.60181,4.60181,0,0,0-.50586,2.47168,20.75,20.75,0,0,0,1.19922,4.73145,27.45918,27.45918,0,0,1,1.644,6.90136,6.97139,6.97139,0,0,1-3.62695,6.6543,8.67209,8.67209,0,0,1-6.90625,1.06055,9.2986,9.2986,0,0,1-5.68262-4.5127,11.42178,11.42178,0,0,1-1.499-8.15723l-3.44532-.51464-.72021-1.208,9.61133-5.73242.7207,1.207a12.72176,12.72176,0,0,0-4.39307,6.89551,9.15448,9.15448,0,0,0,.99366,6.88964,6.6229,6.6229,0,0,0,3.88379,3.17578,5.47275,5.47275,0,0,0,4.5-.55761,4.34571,4.34571,0,0,0,1.73828-1.833,5.17851,5.17851,0,0,0,.39892-2.76172,33.50216,33.50216,0,0,0-1.50683-5.90137q-1.478-4.69042-1.16065-6.90332a6.87081,6.87081,0,0,1,3.59717-4.98828A8.32744,8.32744,0,0,1,221.43115,657.75a9.37653,9.37653,0,0,1,1.21729,3.29883A12.20035,12.20035,0,0,1,222.544,665.06836Z" transform="translate(-94.09471 -80.65259)"/><path class="cls-1" d="M237.18115,681.86523a13.04262,13.04262,0,0,1,2.43018,6.68262,13.37433,13.37433,0,0,1-1.44629,7.19434,17.60349,17.60349,0,0,1-12.64209,9.06543,13.577,13.577,0,0,1-7.31348-.8916,12.68623,12.68623,0,0,1-5.50293-4.332,12.09167,12.09167,0,0,1-2.25781-6.41015,13.71337,13.71337,0,0,1,1.57227-7.15235,16.7582,16.7582,0,0,1,5.30908-6.084,16.36772,16.36772,0,0,1,7.28515-3.03125,13.615,13.615,0,0,1,7.2168.84082A12.02048,12.02048,0,0,1,237.18115,681.86523Zm-1.03955,1.13086a7.35583,7.35583,0,0,0-6.16992-3.168q-3.94848-.07471-9.75488,4.0957-6.2981,4.522-7.29737,8.22168a7.65319,7.65319,0,0,0,4.74414,9.38476,9.02474,9.02474,0,0,0,5.23438-.043,21.91926,21.91926,0,0,0,6.90576-3.57617,24.76707,24.76707,0,0,0,5.97656-5.59082,8.83057,8.83057,0,0,0,1.75977-4.96582A7.27811,7.27811,0,0,0,236.1416,682.99609Z" transform="translate(-94.09471 -80.65259)"/><path class="cls-1" d="M259.37207,713.99023l2.99414-.80664.80469.93067-8.46045,7.9834-.85547-.99024a18.77893,18.77893,0,0,0,3.34766-7.17773,7.30551,7.30551,0,0,0-1.57862-6.27735,6.95458,6.95458,0,0,0-6.32275-2.35742q-3.947.39111-9.79883,5.44824-4.92114,4.25391-5.79541,8.46778a7.43412,7.43412,0,0,0,1.89942,6.61914,8.24653,8.24653,0,0,0,5.564,2.9873,11.575,11.575,0,0,0,7.18018-2.10058l.90673,1.04883a12.51537,12.51537,0,0,1-8.311,2.51074,10.31386,10.31386,0,0,1-6.92578-3.77246,12.61205,12.61205,0,0,1-2.96143-6.20411,13.06873,13.06873,0,0,1,.79834-7.0664,15.68964,15.68964,0,0,1,4.47071-6.25195,18.1058,18.1058,0,0,1,7.35205-3.88868,13.94046,13.94046,0,0,1,7.43017-.11035,11.23758,11.23758,0,0,1,5.54053,3.498,10.47926,10.47926,0,0,1,1.88769,3.16992A15.259,15.259,0,0,1,259.37207,713.99023Z" transform="translate(-94.09471 -80.65259)"/><path class="cls-1" d="M266.16064,717.917l9.37647,9.46192-1.04053,1.03125-1.6084-1.62305q-1.073-1.08252-1.625-1.09863a2.29339,2.29339,0,0,0-1.42627.84961l-15.53808,15.39746q-.92944.92138-.91748,1.40527a2.45669,2.45669,0,0,0,.87695,1.52246l1.80078,1.81738-1.04053,1.03125-9.376-9.46093,1.04053-1.03125,1.77343,1.78906q.93458.94336,1.48731.94629.55224.00293,1.48193-.91895l15.5376-15.39746q.8877-.87891.84863-1.33594a3.2928,3.2928,0,0,0-1.09668-1.74511l-1.59472-1.60938Z" transform="translate(-94.09471 -80.65259)"/><path class="cls-1" d="M287.478,737.51465l.98144.86328-9.68506,26.68066a2.47365,2.47365,0,0,0,.8628,2.89258l.67431.59375-.96777,1.09961-8.6499-7.61426.96777-1.09961.68945.60645a5.87544,5.87544,0,0,0,2.16358,1.38477.89342.89342,0,0,0,.936-.29493,2.03165,2.03165,0,0,0,.36231-.61816l2.2583-6.18164-8.57568-7.54981-3.33008,1.75293a6.80424,6.80424,0,0,0-1.8667,1.32325,2.01628,2.01628,0,0,0-.417,1.81836,4.17832,4.17832,0,0,0,1.49072,2.22265l.73291.64551-.96777,1.09961-7.85791-6.917.96777-1.09961a4.33252,4.33252,0,0,0,2.477,1.20508,6.43989,6.43989,0,0,0,3.1875-.90235Zm-4.10547,3.80176-12.39746,6.23437,7.65722,6.74024Z" transform="translate(-94.09471 -80.65259)"/><path class="cls-1" d="M299.74805,748.86328l18.83545,13.98047-6.05274,9.10449-1.082-.80273q4.66992-8.5254.14356-11.88574a2.32434,2.32434,0,0,0-1.48243-.61329,1.69454,1.69454,0,0,0-1.106.78418l-13.75977,18.53711a1.25407,1.25407,0,0,0-.2876,1.07618,2.14948,2.14948,0,0,0,.88428,1.06933l2.33691,1.73438-.873,1.17675-10.77442-7.99707.87305-1.17675,2.666,1.97949a1.41974,1.41974,0,0,0,1.01367.33789,1.149,1.149,0,0,0,.80615-.49609l13.95752-18.80372a1.39145,1.39145,0,0,0,.30859-1.16992,2.22236,2.22236,0,0,0-.93359-1.167,5.62558,5.62558,0,0,0-5.39014-.668,16.35492,16.35492,0,0,0-5.94775,4.24414l-1.145-.84961Z" transform="translate(-94.09471 -80.65259)"/><path class="cls-1" d="M321.29736,764.51758l11.19043,7.22558-.79443,1.23047-1.91992-1.23925a3.11352,3.11352,0,0,0-1.82276-.72364q-.54271.10254-1.21045,1.13672l-11.86572,18.37695q-.70971,1.1001-.59472,1.56934a2.46538,2.46538,0,0,0,1.18408,1.29883l2.14941,1.38769-.79443,1.23047-11.19043-7.22461.79443-1.23144,2.1167,1.36719a2.5678,2.5678,0,0,0,1.65576.60351q.53981-.11572,1.25-1.21484L323.311,769.93262q.67821-1.04883.5415-1.48633a3.28863,3.28863,0,0,0-1.44629-1.46875l-1.90332-1.22852Z" transform="translate(-94.09471 -80.65259)"/><path class="cls-1" d="M347.44873,779.68652a13.04122,13.04122,0,0,1,5.07861,4.97754,13.37185,13.37185,0,0,1,1.80274,7.11328,17.603,17.603,0,0,1-7.48584,13.63672,13.56753,13.56753,0,0,1-6.981,2.35449,12.67058,12.67058,0,0,1-6.83447-1.53027,12.09546,12.09546,0,0,1-4.80518-4.80469,13.721,13.721,0,0,1-1.67138-7.13086,16.76446,16.76446,0,0,1,2.16015-7.78027,16.37511,16.37511,0,0,1,5.26123-5.88086,13.61556,13.61556,0,0,1,6.87207-2.3584A12.02076,12.02076,0,0,1,347.44873,779.68652ZM347,781.15527a7.35526,7.35526,0,0,0-6.93262-.1914q-3.594,1.63768-7.02929,7.90722-3.72731,6.79982-3.03028,10.56641a7.65468,7.65468,0,0,0,8.33252,6.416,9.0175,9.0175,0,0,0,4.70215-2.30079,21.89576,21.89576,0,0,0,4.68359-6.208,24.755,24.755,0,0,0,2.97559-7.62305,8.8298,8.8298,0,0,0-.55811-5.23926A7.28207,7.28207,0,0,0,347,781.15527Z" transform="translate(-94.09471 -80.65259)"/><path class="cls-1" d="M362.40527,788.44434l6.33692,2.71679,7.06885,27.72461,6.47265-15.09668a5.16743,5.16743,0,0,0,.40576-3.82129,4.16866,4.16866,0,0,0-2.38965-2.25683l.57715-1.34668,9.29834,3.98633-.57715,1.34668a4.86673,4.86673,0,0,0-2.29736-.51758,3.53453,3.53453,0,0,0-1.84228.91015,5.45576,5.45576,0,0,0-1.5,2.05567L374.915,825.23828l-1.687-.72363-7.2583-28.82031-6.86963,16.02343a4.72831,4.72831,0,0,0-.29541,3.71192,5.23391,5.23391,0,0,0,2.91943,2.55859L361.147,819.335l-10.12451-4.34082.57715-1.34668a4.56136,4.56136,0,0,0,3.55029.04785,4.38055,4.38055,0,0,0,2.34619-2.40039l7.7085-17.97949-.167-.48145a6.27384,6.27384,0,0,0-.77637-1.70214,3.35726,3.35726,0,0,0-1.23437-.82715l-1.19873-.51367Z" transform="translate(-94.09471 -80.65259)"/><path class="cls-1" d="M416.73242,807.98145a13.04155,13.04155,0,0,1,6.07764,3.6914,13.37023,13.37023,0,0,1,3.37451,6.5166,17.60517,17.60517,0,0,1-4.18652,14.98243,13.57727,13.57727,0,0,1-6.26221,3.88085,12.67516,12.67516,0,0,1-7.00342.06543,12.09025,12.09025,0,0,1-5.77246-3.58593,13.71775,13.71775,0,0,1-3.25-6.5625,16.76569,16.76569,0,0,1,.333-8.06836,16.37625,16.37625,0,0,1,3.78516-6.92383,13.61813,13.61813,0,0,1,6.15478-3.86035A12.02088,12.02088,0,0,1,416.73242,807.98145Zm-.103,1.53222a7.35556,7.35556,0,0,0-6.79443,1.39063q-3.12671,2.41406-5.04541,9.2998-2.08227,7.46923-.54639,10.97949a7.65249,7.65249,0,0,0,9.57373,4.35059,9.01959,9.01959,0,0,0,4.05567-3.30957,21.91,21.91,0,0,0,3.14795-7.11133,24.75709,24.75709,0,0,0,1.1626-8.10058,8.82615,8.82615,0,0,0-1.73584-4.97461A7.281,7.281,0,0,0,416.62939,809.51367Z" transform="translate(-94.09471 -80.65259)"/><path class="cls-1" d="M433.8291,813.083l23.105,4.26953-1.43262,9.9043-1.32519-.24512q.05274-5.23389-1.25684-7.06445a7.25827,7.25827,0,0,0-4.875-2.74805l-4.55175-.84082a1.13269,1.13269,0,0,0-1.521,1.03027l-1.89844,10.27539,2.439.4502a4.221,4.221,0,0,0,3.49414-.74414,6.51172,6.51172,0,0,0,2.07275-3.90821l1.38281.25586-2.36718,12.81055-1.38282-.25586a7.61958,7.61958,0,0,0-.46484-4.793,4.11955,4.11955,0,0,0-2.99365-1.96289l-2.43946-.45117-2.00146,10.833a1.72976,1.72976,0,0,0,.21094,1.43847,2.522,2.522,0,0,0,1.52148.68848l2.95752.54688-.26611,1.44043-13.65576-2.52344.26611-1.44043,2.91943.53906a1.8316,1.8316,0,0,0,1.32373-.12207,1.57465,1.57465,0,0,0,.58936-1.09277l4.17285-22.58692a1.37074,1.37074,0,0,0-.19141-1.167,2.227,2.227,0,0,0-1.313-.58105l-2.78467-.51368Z" transform="translate(-94.09471 -80.65259)"/><path class="cls-1" d="M471.21387,819.21582l6.88427.37988,16.14307,23.62207.90625-16.40039a5.16586,5.16586,0,0,0-.92871-3.72851,4.16809,4.16809,0,0,0-3.01855-1.30176l.08056-1.46289,10.10205.55859-.08105,1.46289a4.866,4.866,0,0,0-2.33594.30078,3.53139,3.53139,0,0,0-1.418,1.48633,5.454,5.454,0,0,0-.70508,2.44532l-1.26611,22.91406-1.833-.10059-16.69629-24.58691-.96191,17.40722a4.72638,4.72638,0,0,0,.99463,3.58789,5.2328,5.2328,0,0,0,3.61963,1.40333l-.08057,1.46289-10.999-.60743.08056-1.46289a4.55322,4.55322,0,0,0,3.35108-1.17285,4.37748,4.37748,0,0,0,1.38183-3.05859l1.07959-19.53223-.32226-.39453a6.28261,6.28261,0,0,0-1.313-1.334,3.37228,3.37228,0,0,0-1.44238-.35352l-1.30225-.07227Z" transform="translate(-94.09471 -80.65259)"/><path class="cls-1" d="M504.55957,820.72461l22.876-.83106.90039,9.71973-1.30762.04785q-.94776-4.57762-2.70019-6.35156a5.69628,5.69628,0,0,0-4.46094-1.6748l-5.65235.20507a1.36272,1.36272,0,0,0-1.0205.40821,1.59954,1.59954,0,0,0-.30957,1.1455l.374,10.28614,2.47168-.08985a4.07037,4.07037,0,0,0,3.16992-1.542,6.91238,6.91238,0,0,0,1.17383-4.4209l1.34766-.04882.48535,13.37011-1.34668.04883q-.21827-3.31494-1.52539-4.70312a4.30685,4.30685,0,0,0-3.46875-1.31055l-2.25782.082.417,11.47656a1.15047,1.15047,0,0,0,.4541.94141,2.27649,2.27649,0,0,0,1.40625.28125l4.46386-.16211q7.27-.26514,8.04395-9.5957l1.40527-.05079-.09765,10.77247-23.793.86425-.05274-1.46386,1.97071-.07227a2.51668,2.51668,0,0,0,1.60547-.459,1.44184,1.44184,0,0,0,.42675-1.17774l-.83105-22.876a1.45438,1.45438,0,0,0-.45117-1.11719,1.88535,1.88535,0,0,0-1.30176-.32422l-2.36133.08594Z" transform="translate(-94.09471 -80.65259)"/><path class="cls-1" d="M532.5791,819.51563l23.28809-2.80469,1.86816,10.77246-1.33789.16113q-2.47266-9.40137-8.07031-8.72754a2.32311,2.32311,0,0,0-1.498.57422,1.69526,1.69526,0,0,0-.26367,1.33008l2.76074,22.9209a1.2532,1.2532,0,0,0,.53028.97851,2.14968,2.14968,0,0,0,1.37793.168l2.88964-.34765.17481,1.4541-13.32129,1.60449-.17578-1.4541,3.29687-.39746a1.4225,1.4225,0,0,0,.96875-.45117,1.149,1.149,0,0,0,.24317-.91407l-2.79981-23.25a1.38836,1.38836,0,0,0-.58008-1.06152,2.22588,2.22588,0,0,0-1.48046-.20508,5.6237,5.6237,0,0,0-4.37207,3.22168,16.347,16.347,0,0,0-1.39942,7.17188l-1.415.16992Z" transform="translate(-94.09471 -80.65259)"/><path class="cls-1" d="M557.90625,816.72266l9.416-2.10157.31933,1.42871-.665.14844a4.888,4.888,0,0,0-1.83984.65137.79067.79067,0,0,0-.24707.81543,3.60545,3.60545,0,0,0,.52832,1.02246l.19531.33691,9.73438,16.61817,1.3457-17.65723a11.60262,11.60262,0,0,0-2.082-2.99121,2.70718,2.70718,0,0,0-1.96094-.0625l-1.71094.38281-.31933-1.42968,11.76172-2.626.31836,1.42969-1.21875.27246a5.38144,5.38144,0,0,0-2.01856.7207.84836.84836,0,0,0-.30273.87793,2.38242,2.38242,0,0,0,.28027.71777l9.97461,17.22559,1.22949-17.10449a6.25963,6.25963,0,0,0-.11426-1.85645,2.68824,2.68824,0,0,0-1-1.748,2.37525,2.37525,0,0,0-1.875-.21094l-.875.19531-.31933-1.42969,8.84472-1.97461.31934,1.42969a4.97605,4.97605,0,0,0-1.72559.97559,3.8386,3.8386,0,0,0-.93066,1.43847,10.102,10.102,0,0,0-.4541,2.7627l-1.77637,24.71094-1.35742.30273-11.10938-19.27051L576.71,842.82324l-1.42773.31836-13.52637-23.25586a4.15519,4.15519,0,0,0-1.50977-1.69433,3.21319,3.21319,0,0,0-2.02148-.03907Z" transform="translate(-94.09471 -80.65259)"/><path class="cls-1" d="M609.58887,802.68262a13.04164,13.04164,0,0,1,7.10058-.37305,13.372,13.372,0,0,1,6.459,3.4834,17.60732,17.60732,0,0,1,4.98047,14.7373,13.567,13.567,0,0,1-2.98828,6.73438,12.67313,12.67313,0,0,1-5.749,3.999,12.09882,12.09882,0,0,1-6.79.28906,13.71639,13.71639,0,0,1-6.38183-3.59277,16.75616,16.75616,0,0,1-4.26953-6.85351,16.37444,16.37444,0,0,1-.77247-7.85254,13.61228,13.61228,0,0,1,2.91114-6.65625A12.02109,12.02109,0,0,1,609.58887,802.68262Zm.77832,1.32422a7.35474,7.35474,0,0,0-4.83106,4.97656q-1.22314,3.75585,1.06934,10.52637,2.4873,7.34325,5.7334,9.3789a7.65284,7.65284,0,0,0,10.36133-1.79785,9.01942,9.01942,0,0,0,1.48632-5.01855,21.90534,21.90534,0,0,0-1.40429-7.64942,24.74925,24.74925,0,0,0-3.60254-7.34765,8.8208,8.8208,0,0,0-4.23633-3.13282A7.27613,7.27613,0,0,0,610.36719,804.00684Z" transform="translate(-94.09471 -80.65259)"/><path class="cls-1" d="M625.61133,797.74609l13.63769-6.05664a10.3,10.3,0,0,1,6.9502-.92871,6.38231,6.38231,0,0,1,4.28711,3.75977,6.22172,6.22172,0,0,1,.51758,3.499,6.63484,6.63484,0,0,1-1.53125,3.28711,17.32207,17.32207,0,0,1-4.61231,3.44922,13.59523,13.59523,0,0,1,4.11328-.19238,5.4435,5.4435,0,0,1,2.30957,1.04687,22.18,22.18,0,0,1,3.25879,3.73535,10.84189,10.84189,0,0,0,2.56739,2.68457,1.39375,1.39375,0,0,0,1.293.2168q.55371-.24609.666-1.26855a7.52281,7.52281,0,0,0-.69238-3.12207l1.21386-.53907q2.35693,6.21974-1.78515,8.0586a4.23617,4.23617,0,0,1-2.55078.34277,4.34974,4.34974,0,0,1-2.30078-1.30762,30.69627,30.69627,0,0,1-3.083-4.67871,10.153,10.153,0,0,0-2.34668-2.99707,4.50482,4.50482,0,0,0-2.52539-.80176,7.21229,7.21229,0,0,0-3.21387.70118l-2.16016.959,4.60645,10.37109a1.221,1.221,0,0,0,.751.77735,2.35006,2.35006,0,0,0,1.48925-.25586l2.53516-1.125.59473,1.33887-12.26368,5.44628-.59375-1.33886,2.58789-1.14942a2.10491,2.10491,0,0,0,1.10743-.89843,1.25517,1.25517,0,0,0-.01075-1.10645l-9.37109-21.09863a1.35885,1.35885,0,0,0-.8623-.835,2.11581,2.11581,0,0,0-1.39942.21582l-2.58887,1.14941Zm13.4414,8.5625,3.124-1.38769a9.61043,9.61043,0,0,0,4.3916-3.36914q1.24952-1.97315-.0957-5.00293a7.502,7.502,0,0,0-2.13379-2.999,3.88491,3.88491,0,0,0-2.49414-.87695,14.60237,14.60237,0,0,0-4.48243,1.457,7.34412,7.34412,0,0,0-2.47558,1.45215,1.17283,1.17283,0,0,0-.05274,1.22852Z" transform="translate(-94.09471 -80.65259)"/><path class="cls-1" d="M652.46582,785.7168l11.5293-6.4336.71386,1.27832-2.45605,1.3711a1.92006,1.92006,0,0,0-.98242,1.085,1.5787,1.5787,0,0,0,.15429,1.27832l6.53711,11.71289,3.83789-15.44531a2.93428,2.93428,0,0,0-.11425-2.12891,1.2893,1.2893,0,0,0-1.10547-.65723,3.92673,3.92673,0,0,0-2.05078.65235l-.69922.39062-.71387-1.27929,10.35254-5.77735.71387,1.27832-.80176.44727a5.98983,5.98983,0,0,0-1.94336,1.88965,9.56472,9.56472,0,0,0-1.35059,2.99121l-2.43457,9.36133,15.24805,7.666a5.33335,5.33335,0,0,0,2.27344.666,3.98057,3.98057,0,0,0,2.0166-.55469l.9209-.51465.71387,1.2793-11.376,6.34863-.71387-1.2793,1.29688-.72265a5.535,5.535,0,0,0,1.751-1.291.79926.79926,0,0,0,.13575-.8584,1.38567,1.38567,0,0,0-.56641-.53418l-12.66016-6.34277-1.5957,6.44824,3.46484,6.208a1.177,1.177,0,0,0,.81641.66309,2.40532,2.40532,0,0,0,1.52441-.31446l2.45606-1.37109.71387,1.2793L666.544,810.94141l-.71387-1.2793,2.2168-1.23731a2.18579,2.18579,0,0,0,1.0664-1.05371,1.30352,1.30352,0,0,0-.09961-1.14062l-11.24121-20.14258a1.23711,1.23711,0,0,0-.97949-.67187,3.1228,3.1228,0,0,0-1.73731.5332l-1.876,1.04687Z" transform="translate(-94.09471 -80.65259)"/><path class="cls-1" d="M704.22559,755.75391l-.0625-3.07129,1.15234-.83985,6.29395,8.44043-1.042.75879q-3.832-3.20214-7.06054-3.60449a7.74382,7.74382,0,0,0-5.72266,1.41406,5.90258,5.90258,0,0,0-2.501,3.73242,4.985,4.985,0,0,0,.89551,4.01563,4.65468,4.65468,0,0,0,1.9375,1.59961,4.60679,4.60679,0,0,0,2.50781.27734,20.82854,20.82854,0,0,0,4.60157-1.62793,27.47,27.47,0,0,1,6.72168-2.26953,6.96925,6.96925,0,0,1,6.959,3.00195,8.67142,8.67142,0,0,1,1.68848,6.7793,9.29423,9.29423,0,0,1-3.97364,6.07227,11.41353,11.41353,0,0,1-7.98437,2.24023l-.19727,3.47852-1.13672.82812-6.58984-9.0459,1.13672-.82812a12.72532,12.72532,0,0,0,7.26953,3.74219,9.15451,9.15451,0,0,0,6.76953-1.62012,6.62894,6.62894,0,0,0,2.80567-4.15918,5.46931,5.46931,0,0,0-.96778-4.42969,4.33,4.33,0,0,0-1.98437-1.5625,5.17778,5.17778,0,0,0-2.78711-.14453,33.49725,33.49725,0,0,0-5.73731,2.041q-4.53514,1.90283-6.76855,1.78906a6.87293,6.87293,0,0,1-5.29688-3.125,8.32868,8.32868,0,0,1,1.8877-12.10449,9.364,9.364,0,0,1,3.17383-1.51368A12.205,12.205,0,0,1,704.22559,755.75391Z" transform="translate(-94.09471 -80.65259)"/><path class="cls-1" d="M710.43555,748.34961l17.34277-14.94043,6.77539,7.02734-.99121.8545q-3.59911-2.98389-6.07617-3.27344a5.69366,5.69366,0,0,0-4.53028,1.47949l-4.28515,3.69141a1.3533,1.3533,0,0,0-.541.95605,1.59389,1.59389,0,0,0,.47266,1.08692l6.71777,7.79882,1.874-1.61425a4.06228,4.06228,0,0,0,1.51171-3.18457,6.91293,6.91293,0,0,0-1.84375-4.18555l1.02051-.87891,8.73242,10.13672-1.02148.87891q-2.24121-2.45215-4.12988-2.71973a4.30856,4.30856,0,0,0-3.52637,1.14356l-1.71191,1.4746,7.49511,8.70118a1.15115,1.15115,0,0,0,.94239.45117,2.27455,2.27455,0,0,0,1.27343-.6582l3.38477-2.916q5.5122-4.74756.28711-12.51758l1.06543-.918,6.65332,8.47266-18.03809,15.53906L728.333,769.125l1.49414-1.28711a2.52076,2.52076,0,0,0,.9668-1.36133,1.44547,1.44547,0,0,0-.40332-1.18652l-14.93946-17.34277a1.45378,1.45378,0,0,0-1.05078-.59082,1.88311,1.88311,0,0,0-1.21875.56054l-1.79,1.542Z" transform="translate(-94.09471 -80.65259)"/><path class="cls-1" d="M748.11035,716.20313l-1.05762-2.915.85938-.88086,8.67285,7.751-.91406.9375a18.77715,18.77715,0,0,0-7.43652-2.72558,7.30285,7.30285,0,0,0-6.12012,2.10547,6.95461,6.95461,0,0,0-1.81153,6.501q.7251,3.89942,6.26075,9.29981,4.65527,4.54248,8.92968,5.05566a7.43361,7.43361,0,0,0,6.4336-2.45605,8.24393,8.24393,0,0,0,2.5039-5.79688,11.5723,11.5723,0,0,0-2.70312-6.97558l.96777-.99317a12.5174,12.5174,0,0,1,3.208,8.06738,10.31114,10.31114,0,0,1-3.16992,7.22168,12.62093,12.62093,0,0,1-5.93067,3.47852,13.08125,13.08125,0,0,1-7.10839-.19531,15.69787,15.69787,0,0,1-6.60938-3.92383,18.1117,18.1117,0,0,1-4.5-6.99512,13.93806,13.93806,0,0,1-.74023-7.39355,11.23816,11.23816,0,0,1,3.01465-5.81739,10.4453,10.4453,0,0,1,2.998-2.15039A15.252,15.252,0,0,1,748.11035,716.20313Z" transform="translate(-94.09471 -80.65259)"/><path class="cls-1" d="M751.20605,709.79883l8.39844-10.36426,1.1377.92188-1.68457,2.0791a2.42461,2.42461,0,0,0-.67383,1.38965,1.31037,1.31037,0,0,0,.56445,1.01074l12.6709,10.2666a12.61851,12.61851,0,0,0,3.28711,2.08594,5.87354,5.87354,0,0,0,3.92676.05566,8.29916,8.29916,0,0,0,3.7998-2.8584,8.20322,8.20322,0,0,0,2.19629-5.95312,7.3235,7.3235,0,0,0-2.93945-5.043L771.58594,695.04a10.95734,10.95734,0,0,0-2.22559-1.48828,3.39287,3.39287,0,0,0-1.542-.34473,2.75827,2.75827,0,0,0-1.31641.42871,7.96043,7.96043,0,0,0-1.665,1.668l-1.13769-.92285,6.87305-8.48242,1.13769.92187-.49121.60742a3.51956,3.51956,0,0,0-.95508,2.74512,4.11051,4.11051,0,0,0,1.65723,2.5l11.03223,8.93848q3.6123,2.92676,3.86621,6.55176a11.16728,11.16728,0,0,1-2.834,7.93457,15.43543,15.43543,0,0,1-5.20312,4.48242,7.56741,7.56741,0,0,1-4.97364.57031,10.03407,10.03407,0,0,1-3.92773-2.10254L756.3291,708.06836a1.28481,1.28481,0,0,0-1.09961-.30273,2.09972,2.09972,0,0,0-1.15918.82519l-1.72656,2.13086Z" transform="translate(-94.09471 -80.65259)"/><path class="cls-1" d="M771.51367,684.46l8.28418-12.41113a10.30115,10.30115,0,0,1,5.37695-4.501,6.38472,6.38472,0,0,1,5.63282.88379,6.23013,6.23013,0,0,1,2.30859,2.68066,6.64267,6.64267,0,0,1,.46387,3.59668,17.31682,17.31682,0,0,1-2.05371,5.38086,13.59241,13.59241,0,0,1,3.374-2.3623,5.437,5.437,0,0,1,2.51074-.34961,22.16973,22.16973,0,0,1,4.752,1.41309,10.827,10.827,0,0,0,3.60449.8955,1.39327,1.39327,0,0,0,1.209-.50781,1.42565,1.42565,0,0,0-.11621-1.42773,7.5256,7.5256,0,0,0-2.25488-2.26856l.73828-1.10449q5.31592,3.99609,2.80078,7.76465a4.23927,4.23927,0,0,1-1.97265,1.65332,4.35215,4.35215,0,0,1-2.64356.126,30.82084,30.82084,0,0,1-5.10742-2.30567,10.146,10.146,0,0,0-3.585-1.27832,4.514,4.514,0,0,0-2.5625.67285,7.23636,7.23636,0,0,0-2.3418,2.31153l-1.31152,1.96582,9.4375,6.30078a1.22142,1.22142,0,0,0,1.05078.25488,2.35452,2.35452,0,0,0,1.12207-1.01172l1.54-2.30664,1.21777.8125-7.45019,11.16016-1.21778-.81348,1.57227-2.35547a2.11063,2.11063,0,0,0,.45605-1.35058,1.25849,1.25849,0,0,0-.60058-.92969l-19.20117-12.81738a1.35869,1.35869,0,0,0-1.17481-.24512,2.11736,2.11736,0,0,0-1.06836.93164l-1.57226,2.35449Zm15.93653.04785,1.89746-2.84277a9.61068,9.61068,0,0,0,1.90918-5.19531q0-2.33643-2.75684-4.17676a7.47915,7.47915,0,0,0-3.40625-1.39356,3.88826,3.88826,0,0,0-2.57617.59278,14.57358,14.57358,0,0,0-3.00879,3.62793,7.35994,7.35994,0,0,0-1.31543,2.55078,1.176,1.176,0,0,0,.6123,1.0664Z" transform="translate(-94.09471 -80.65259)"/><path class="cls-1" d="M787.64453,659.707l6.61524-11.56152,1.27148.72754-1.13477,1.9834a3.11316,3.11316,0,0,0-.625,1.85839q.13185.5376,1.2002,1.14746L813.958,664.72656q1.13672.64893,1.59863.50977a2.46592,2.46592,0,0,0,1.23438-1.25195l1.2705-2.22071,1.27149.72754-6.61524,11.56152-1.27148-.72753,1.251-2.1875a2.57524,2.57524,0,0,0,.51464-1.68555q-.145-.5332-1.28125-1.18262l-18.98632-10.86328q-1.08546-.62109-1.51368-.46191a3.29151,3.29151,0,0,0-1.38964,1.52343l-1.125,1.9668Z" transform="translate(-94.09471 -80.65259)"/><path class="cls-1" d="M796.03711,645.13574l10.28027-21.084,10.06153,4.27539-.59082,1.21094q-9.23732-3.02345-11.708,2.04394a2.31993,2.31993,0,0,0-.33106,1.57031,1.68933,1.68933,0,0,0,.97461.94239l20.751,10.11718a1.24741,1.24741,0,0,0,1.10937.085,2.15281,2.15281,0,0,0,.88965-1.06543l1.27539-2.61622,1.31641.64161-5.87988,12.06152-1.31739-.6416,1.45508-2.98535a1.42387,1.42387,0,0,0,.14746-1.05762,1.15235,1.15235,0,0,0-.63672-.70117l-21.04882-10.2627a1.39442,1.39442,0,0,0-1.207-.08887,2.22052,2.22052,0,0,0-.97559,1.13282,5.62548,5.62548,0,0,0,.334,5.4209,16.37323,16.37323,0,0,0,5.26563,5.0664l-.625,1.28125Z" transform="translate(-94.09471 -80.65259)"/><path class="cls-1" d="M806.90723,622.959l4.57422-11.80078,1.36523.5293-.50684,1.30762a5.96,5.96,0,0,0-.56836,2.22461.83858.83858,0,0,0,.51954.76562,1.62075,1.62075,0,0,0,.95507.07715l13.26368-2.72168-7.14161-8.42578a2.8882,2.8882,0,0,0-1.18359-.83594,2.08718,2.08718,0,0,0-1.75195.0332,2.71289,2.71289,0,0,0-1.249,1.54786l-.4873,1.25683-1.36621-.53027,3.98144-10.27051,1.36621.5293a5.706,5.706,0,0,0-.457,3.01465,6.54894,6.54894,0,0,0,1.57227,2.8623l8.9668,10.6416,8.52343,3.30371a1.22009,1.22009,0,0,0,1.11328-.00879,2.85116,2.85116,0,0,0,.98926-1.418l.89649-2.3125,1.36621.52929-4.793,12.36524-1.36621-.5293.94629-2.44043a2.41983,2.41983,0,0,0,.19531-1.55762,1.29587,1.29587,0,0,0-.82324-.82226l-8.28614-3.21192-16.26074,3.31153a3.34274,3.34274,0,0,0-1.66894.82031,7.14042,7.14042,0,0,0-1.31934,2.29492Z" transform="translate(-94.09471 -80.65259)"/><path class="cls-1" d="M225.751,326.835l-16.377-10.499-4.04736,6.314-1.38135-.88525,4.04785-6.314-19.53369-12.52295,2.65625-4.14355,19.53369,12.52295L233.165,276.186l1.38135.88525-22.51563,35.12109L228.21,322.56494q5.93335,4.63844,8.82861-.74316,2.40162-3.74634,2.30762-12.71924c-.09375-.43018-.03223-.66895.18213-.71826.34814.04.56885.273.66309.70312q2.24853,9.52-1.67041,15.6333Q233.85327,332.8667,225.751,326.835Zm-16.31446-50.54883,3.1626-4.93261q.96606,6.74632,2.09375,18.88134.95289,5.90332-4.88281,14.13086l-.50635.78907c-.12939-.083-.11719-.53614.04053-1.36573Q212.07984,296.916,209.43652,276.28613Zm7.8711,32.88623,2.90918-4.53808q32.01415-5.64184,35.61377-11.69092c.38232-.31152.64111-.42383.77392-.33887.083-.12939.06494.04151-.05566.521q-3.54273,5.52686-5.39893,7.11865a10.43036,10.43036,0,0,1-5.02392,2.62549A217.47247,217.47247,0,0,1,217.30762,309.17236Z" transform="translate(-94.09471 -80.65259)"/><path class="cls-1" d="M248.85889,252.709l-3.49659,3.46387-9.89746-9.98926,3.4961-3.46435,2.8042,2.83056q-2.14235-2.82567,1.355-6.2915l9.15674-9.07275-5.11377-5.16162,3.49658-3.46387,5.11377,5.16113,9.65625-9.56787q7.49487-8.08374,11.61474-2.92969l1.9795,1.998q3.63061,3.66357-.36524,7.29c-.22217.44189-.4458.66357-.666.66016l-.16309-.498a7.1205,7.1205,0,0,0-1.80566-3.82031l-2.47461-2.49707q-2.96778-3.323-7.13135,1.12695L244.1084,240.58887q-2.66529,2.64038-1.68311,5.627Zm36.26269-29.00146-6.49316,6.43359a26.23983,26.23983,0,0,1,1.978,2.3291q.82689.835,1.15478,1.16553,4.12353,4.49781,2.772,9.791-.17211,1.16016-.84912,4.4707-.50976,2.81763-.84765,4.13916,20.581-7.1997,23.74365-9.66846.82617-.49365.33008.333-4.83839,6.44092-9.64893,7.91065-3.323,1.3125-15.772,6.05908-3.02929,9.93018-4.70752,14.5625-1.67871,4.3-7.83447,9.74219c-.44336.21777-.72071.271-.82911.16162-.11084-.11182.00147-.33106.33448-.66114q2.66748-3.96533,8.38867-22.16943-4.48169,1.47144-9.791,2.77246-5.97363,1.63478-8.27246-3.021a41.25181,41.25181,0,0,1-3.125-5.15235l-6.99267,6.92871-1.15479-1.16552,7.32568-7.25831q-1.81054-2.491-4.93847-7.31494a15.18034,15.18034,0,0,1-1.1499-2.15966l3.49609-3.46436a40.78049,40.78049,0,0,0,4.11182,6.814,23.99975,23.99975,0,0,0,1.81,2.82569L283.9668,222.542Zm-9.65674,9.56787-16.48242,16.33106q.82032,1.49927,2.30176,3.98828c.54834.77685.88037,1.22119.98828,1.33056q1.97388,3.32594,5.1294,1.84668a99.91662,99.91662,0,0,0,10.62158-3.26562,77.30426,77.30426,0,0,0,2.03467-9.93457q1.00927-3.30469-1.627-6.63672-.657-.66357-2.47265-2.8291A2.07179,2.07179,0,0,1,275.46484,233.27539Z" transform="translate(-94.09471 -80.65259)"/><path class="cls-1" d="M344.103,171.93408l-21.437,13.46045a12.56984,12.56984,0,0,1,1.69873,4.46826l1.98486-1.24658q2.36352,1.56445,7.03955,4.15918,10.56738,5.81837,18.57959,10.19678,5.04713,3.19409,12.72168.86767c.34521-.03515.36426.13916.05078.522q-9.679,6.62915-14.70215,2.58935-14.87183-7.81786-25.42041-14.48047,1.54468,14.80445,1.72656,29.63526-.31713,4.34985-1.999,6.51318-1.56445,2.36352-7.51465,6.10205-.72143.17432-.24951-.397,5.10279-5.97363,5.14209-12.08447a284.87389,284.87389,0,0,0-1.35254-29.03955,15.47013,15.47013,0,0,0-1.67529-5.313l-21.437,13.46-.99707-1.58789,21.437-13.46-7.478-11.90967,3.96973-2.49268,7.478,11.90967,21.437-13.46045Z" transform="translate(-94.09471 -80.65259)"/><path class="cls-1" d="M364.855,158.167l4.19971-1.48047,1.55859,4.4209q-.22119-4.14477,4.20117-5.70605L403.5498,145.272q9.20729-3.49073,10.647,2.708l1.24658,3.53662q1.949,5.52759-3.5,7.69531c-.38965.3042-.49121.2583-.29883-.14306q1.1543-1.648-.24512-5.62989l-1.48046-4.1997q-1.1067-3.83277-6.1875-2.04346L375.438,157.16992q-3.76171,1.32569-4.66895,4.3794l3.50635,9.94677-4.19971,1.481Zm.31641-11.7915,4.86279-1.71436q7.06934,5.959,10.84082,5.37354a2.86744,2.86744,0,0,1,.81885.208h0a3.74312,3.74312,0,0,1-.96192.09082q-7.66186,2.95092-10.07617.32129A26.99229,26.99229,0,0,1,365.17139,146.37549Zm37.32129,10.70068-24.978,8.80518-.54541-1.54737,26.74609-9.42871q3.394-.94555,4.75781.80811,1.07594,2.35767-.95068,5.05664a73.31274,73.31274,0,0,1-6.04785,6.1084c-1.11768,1.0581-1.92236,1.83838-2.40576,2.33887q2.54662,1.58936,4.19824,2.74511l20.11475-7.09082.62353,1.76807-19.231,6.7793a20.58975,20.58975,0,0,1,1.92286,4.04394q3.36034,10.24292-6.88282,13.60938-8.84325,3.11718-15.19775-.10987c-.34961-.04394-.47412-.167-.37695-.36426a2.0733,2.0733,0,0,1,.96191-.09033q5.63818.49365,13.15772-2.15332,6.02856-2.62645,4.13769-9.41113a10.88835,10.88835,0,0,0-2.36426-3.88818l-28.07275,9.896-.62305-1.76806,26.9668-9.50635q-3.68042-2.67554-16.02783-5.28467l5.96826-2.104q3.49438.76024,6.1748,1.30273a85.9981,85.9981,0,0,0,9.33789-8.75928c.67725-.89892.88721-1.46972.6377-1.71582Q404.11671,156.7539,402.49268,157.07617Zm-2.91651-23.07763,4.86279-1.71436a40.435,40.435,0,0,1-1.51074,6.99414q-.67968,3.72217-8.0498,6.06836c-.59033.208-.96.33838-1.105.38965q-7.21582,2.79418-9.855.24316a24.3536,24.3536,0,0,1-5.5625-4.50049l4.86279-1.71435q6.55,5.89233,10.84082,5.37353c-.14844.05225-.07617.02686.2207-.07812-.14843.05273-.07568.02685.22119-.07764Q397.5835,143.15064,399.57617,133.99854Z" transform="translate(-94.09471 -80.65259)"/><path class="cls-1" d="M488.644,165.3335l-.13623-1.16407q-6.64452,1.72632-9.61084-5.47851a40.18443,40.18443,0,0,1-2.75146-5.34082q-1.45533,3.71045-2.13721,5.91455-1.89111,8.00976-8.98389,7.89844a.94233.94233,0,0,1-.72558-.15039c-.01758-.15284.1167-.32715.41113-.52051a10.10889,10.10889,0,0,0,3.51953-4.189q-6.20288,1.43628-9.03564-4.60254a7.30608,7.30608,0,0,1-1.46485-2.42382,56.16638,56.16638,0,0,0-1.87695,6.12011q-1.4546,7.72558-7.38184,7.47461l1.06592,9.07813-4.42236.519-6.12354-52.1416,4.42286-.519.4375,3.72412q1.01441-3.42115,6.34033-4.28418l27.70019-3.25293q10.24072-1.20264,11.11719,6.24609l4.23682,36.08008q1.53,9.02343-7.834,9.65137-9.54784,1.12133-15.73193-3.34424-.78-.616.17822-.49268A33.07,33.07,0,0,0,483.2207,171.398Q489.762,170.86256,488.644,165.3335Zm-29.6914-33.79883,4.65576-.54688q-.605,2.90333-1.91846,7.77686-1.31908,4.87866-2.522,10.67969,2.95313,5.08446,3.7915,6.16211,2.89819,4.61571,5.59912,5.478l.20557-.25976a27.77032,27.77032,0,0,0,1.0957-2.72461c.09815-.4834.31983-1.29492.65772-2.437a62.65077,62.65077,0,0,0,2.61719-7.85889q-6.59913-11.9685-8.82813-16.89844l4.65527-.54638q1.311,3.15308,6.1045,11.79,2.5078-8.78979,3.67236-12.93847l4.65527-.54639q-2.15259,7.80762-5.57666,18.82568,3.35231,6.45338,4.81787,8.87354,2.2002,4.697,5.7085,6.40918l-3.99121-33.98535q-.68262-5.81544-6.96826-5.08106L449.917,126.93213a8.1266,8.1266,0,0,0-5.98437,3.29834l4.31884,36.77881q1.90431-1.87207,3.45215-6.77735.35449-.98144,1.79493-6.81836.50755-1.70727,1.01416-3.42285-6.11867-9.90087-9.75928-16.78857l4.65576-.54688q.97192,2.24781,6.54248,11.50293Q457.95191,137.08155,458.95264,131.53467Z" transform="translate(-94.09471 -80.65259)"/><path class="cls-1" d="M510.03125,169.30029l.21387-2.09814q12.12158,1.2356,18.70605-.91992c.3252-.1211.55762-.09766.69922.07177q-.25928.21094-.77148.62793a18.10058,18.10058,0,0,1-7.09375,2.57471Q518.42188,170.15283,510.03125,169.30029Zm18.58887-36.74121,4.89648.49951q-10.42529,12.1333-16.12988,19.55811-1.6128,1.9563-.98438,2.727.627.7705,3.68262.84668a15.651,15.651,0,0,0,9.16992-2.12793.29575.29575,0,0,1-.04785.46631q-4.20849,4.28687-12.15723,3.708-7.23046-.73755-4.02148-6.771a113.62624,113.62624,0,0,1,8.67383-11.13086,10.83835,10.83835,0,0,1-4.71094-.00928q-6.019-1.08324-2.87891-6.41894,2.26758-3.772,11.40918-14.85645-.28271.44606.53809-.65185l5.12988.523c-.36132.43457-.80273.9414-1.333,1.51318q-9.11866,10.85376-11.38575,14.62354-2.47851,3.51855,1.01856,3.87353a14.47261,14.47261,0,0,0,3.54492-.10986Q525.6709,136.032,528.62012,132.55908Zm15.626-12.30615,4.66309.47559q-.564.88623-2.7832,4.19238a10.14266,10.14266,0,0,0-1.37989,1.97949,7.42591,7.42591,0,0,1,5.39161-2.0415l8.86035.90332q6.99462.71337,7.12793,4.02539.41454,2.86962-4.88672,6.334-1.7754,1.23194-4.03906,2.65039-2.26613,1.42017-4.55372,3.06983,12.24316,11.61766,15.22754,12.38965c.58789.37646.877.6416.86133.79492-.01562.15674-.33691.20117-.95605.13769q-7.56006.17359-14.35254-7.11767-.44677-.27759-1.32715-.8418-1.90869-2.07787-2.95508-3.36426a78.46329,78.46329,0,0,1-8.5459,5.25391,14.23748,14.23748,0,0,1-11.31543,2.37988c-.46679-.04736-.78027-.07959-.93261-.09521q.02343-.22926.7705-.62793,5.13429-1.82886,17.2295-9.55127-6.21827-6.05127-7.05176-7.08008-2.33643,2.1189-6.27637,1.48c-.7959.07715-1.10547.04541-.93262-.09522q-.23583-.02343.77051-.62793Q534.72363,135.06616,544.24609,120.25293Zm-6.44921,53.99951-4.66309-.47558,2.1875-21.45118,4.66309.47559-.4043,3.96338q1.30957-3.63208,6.44336-3.11231l6.99511.71338q10.49268,1.07007,9.40723,7.085l-.95117,9.32666q-.15234,6.10767-10.64356,5.03955l-6.76171-.68945q-5.855-.36474-5.89161-4.606Zm1.73632-17.021-1.30761,12.82373q.64306,2.89306,5.56738,3.15918l6.99512.71337q5.84911.35963,6.209-3.13623l1.02246-10.02587q.65772-4.17334-5.40137-4.79151l-6.99414-.71338Q540.957,154.78467,539.5332,157.23145Zm17.457-30.26026-6.99511-.71338a8.62559,8.62559,0,0,0-6.09082,1.97022,23.7692,23.7692,0,0,1-2.19825,3.07422c-.36132.43457-.80273.9414-1.332,1.51318a2.71777,2.71777,0,0,1-.53808.65186l4.43066.45214a63.81832,63.81832,0,0,0,5.37695,5.02442q4.03564-2.64771,8.33692-5.51074,3.80566-2.67115,3.50586-4.3545Q561.15966,127.63209,556.99023,126.97119Z" transform="translate(-94.09471 -80.65259)"/><path class="cls-1" d="M637.57813,169.17773l-8.666-2.90673a26.08288,26.08288,0,0,1-1.19141,2.81445q-.37353,1.114-.52148,1.55518-2.16357,5.70629-7.499,6.8789-1.11329.36768-4.375,1.25147-2.74512.81152-4.07813,1.10449,15.68555,15.145,19.3125,16.86035.81153.51563-.14941.44434-7.92774-1.4253-11.4043-5.061-2.666-2.37817-12.50391-11.36328-10.23193,1.75927-15.124,2.34326-4.59522.43432-12.22461-2.61719c-.39453-.29834-.56641-.522-.51758-.668.05078-.14892.29688-.14746.74121.00147q4.74171.59985,23.57422-2.47559-3.32958-3.34131-6.8789-7.49853-4.147-4.60107-1.02149-8.74756a41.283,41.283,0,0,1,3.19629-5.1084l-9.332-3.13037.52148-1.55518,9.77735,3.2793q1.41064-2.73633,4.3125-7.69971a15.20883,15.20883,0,0,1,1.41211-1.99853l4.667,1.56494q-1.11475,1.10963-4.23731,6.73682a23.92032,23.92032,0,0,0-1.71093,2.8872l34.44238,11.55274Zm-42.21-19.34912-4.666-1.56543,4.47168-13.33252,4.667,1.56543-1.26758,3.77735q1.56153-3.18457,6.22852-1.61865l12.22168,4.09912,2.31054-6.88819L624,137.43066l-2.31055,6.88868,12.88868,4.32275q10.59081,3.06006,7.83886,9.05713l-.89453,2.6665q-1.63915,4.88966-6.67578,2.95166c-.49414.00049-.793-.09961-.88867-.29785l.37109-.37012a7.11273,7.11273,0,0,0,2.60059-3.33007l1.11816-3.333q1.6333-4.14551-4.21387-5.86328l-29.77539-9.98731q-3.5581-1.19312-5.7832,1.02686ZM624.69043,164.855l-21.999-7.37891q-.96974,1.407-2.52735,3.84961c-.44726.83838-.69433,1.335-.74316,1.481q-2.08447,3.25782.65625,5.41162a99.99651,99.99651,0,0,0,7.69336,8.019,77.40372,77.40372,0,0,0,9.78808-2.6499q3.40577-.58447,5.19629-4.4375c.19825-.58984.66895-1.75293,1.415-3.48047A2.0648,2.0648,0,0,1,624.69043,164.855Z" transform="translate(-94.09471 -80.65259)"/><path class="cls-1" d="M695.08984,214.70508,677.65918,204.125l-7.29688,12.02148,20.43653,12.4043-.85156,1.40235L644.2666,202.22607l.85156-1.40283,21.03711,12.76953,7.29688-12.02148-17.23047-10.4585.97266-1.603,17.23046,10.45849,6.56641-10.81933-15.42676-9.36377.85157-1.40235,34.26074,20.79541-.85156,1.40235-14.626-8.87744L678.63184,202.522l17.43164,10.58057Zm-10.7666-48.209,4.8086,2.91846a32.11694,32.11694,0,0,0-3.2627,1.30957q3.66212-1.06713,9.27344,2.33887a15.624,15.624,0,0,1,8.459,12.26269c.0752.77832.16114,1.83692.26465,3.17676q.46289,3.30175.9375,5.23.45264,6.0315,3.00684,9.50147c.2373.51269.24707.793.03613.84424q-.123.20214-.60156-.36475-7.05909-3.73168-6.87012-8.55664a16.07835,16.07835,0,0,1-.70117-4.26416q-.353-2.12916-1.00977-6.91895-1.45018-8.0061-5.57519-10.23779a16.22269,16.22269,0,0,0-10.36035-1.90186q-2.05518.67383-5.51661,1.86084-4.35059,1.74756-6.40332,2.41895-5.48437,2.70557-11.52734-1.78711c-.66992-.40674-.96191-.67383-.87988-.80859.08008-.13135.57519-.19922,1.48828-.19336Q662.8955,175.14918,684.32324,166.49609Z" transform="translate(-94.09471 -80.65259)"/><path class="cls-1" d="M706.875,247.51172l-3.37988-3.24854,27.28515-28.38867-4.39355-4.22265,1.13672-1.18311,4.39355,4.22266,10.39453-10.81495,3.37891,3.24854-10.39355,10.81494L739.52148,222l-1.13671,1.18262-4.22461-4.06006Zm27.9707,14.5293,20.78809-21.62989q4.72119-4.23852-.84668-9.26562l-.50684-.48731-4.873,5.06934q-2.606,2.37158-5.04785,4.57568a58.04475,58.04475,0,0,1-5.2295,3.75049,125.33549,125.33549,0,0,1-18.36718,9.97852q-5.08887,2.58324-10.16309-2.61621a2.75093,2.75093,0,0,1-.18262-.8252.4127.4127,0,0,1,.66309-.01318,14.122,14.122,0,0,0,7.94629-.48926,91.03162,91.03162,0,0,0,17.21777-9.458q3.43066-2.55468,6.36621-4.93359,2.77294-2.21118,4.89258-4.0752l3.73535-3.88672-7.2666-6.9834,1.13672-1.1831,7.2666,6.98389,6.17188-6.42139,3.041,2.92334-6.1709,6.42139.67578.64941q5.23536,5.03247,5.61621,7.34766.71191,2.636-2.37109,5.84863L738.3877,265.12012q-6.32812,6.917-11.58594.89306a13.24059,13.24059,0,0,1-3.67969-10.03857q-.03956-1.98852.66211-.01318a20.29618,20.29618,0,0,0,3.94629,6.71777Q730.78467,266.26294,734.8457,262.041Zm5.75489-35.75293,3.21093,3.08593q-3.271,2.38843-6.21093,4.43311-9.15089,6.80932-12.57813,9.36621-4.58789,2.74438-8.13476-.66748c-.67481-.42969-.95411-.69824-.84571-.812-.00683-.22022.3252-.33789.98828-.35108a11.06657,11.06657,0,0,0,5.76953-1.60644Q730.32032,234.6145,740.60059,226.28809Zm19.0957,18.35254,3.21,3.08544q-7.10155,9.75294-12.5625,18.48291-2.26319,3.02857-1.88281,5.3418c-.10059.55371-.26367.834-.48145.83838-.1084.11377-.33594-.10449-.67578-.64941q-3.71776-3.57423-.82031-7.94043Q752.27979,255.3977,759.69629,244.64063Z" transform="translate(-94.09471 -80.65259)"/><path class="cls-1" d="M782.05859,308.21973l2.84864,4.29785q-6.74707,17.4016-4.99707,21.30762a2.68344,2.68344,0,0,1-.002.84521l-.4541-.26123q-4.92333-6.58227-2.63574-11.1875a4.56292,4.56292,0,0,1,.7207-1.8833q-8.95752-4.18653-20.61328-21.7666-4.27295-6.44678-1.668-8.45508,1.49708-1.55932,5.918-.8291,11.1079,2.75976,18.707,5.31543L768.877,278.99756l1.36719-.90674,27.19141,41.02588-1.36719.90625L783.249,300.68213q-12.53905-4.06494-22.085-6.16943a3.20007,3.20007,0,0,0-2.73047.12255q-1.6245.51051,3.03516,7.54883a121.39443,121.39443,0,0,0,15.81055,18.76367A134.0714,134.0714,0,0,1,782.05859,308.21973ZM802.04492,273.041l3.10742,4.68847a9.17737,9.17737,0,0,0-2.40625.18848,12.28775,12.28775,0,0,0-3.57519.1206q5.915.01392,9.92969,6.07178,4.853,6.906,1.65136,14.37061-2.48877,6.427-3.72949,9.2207a16.08329,16.08329,0,0,0-1.71777,10.13574c-.09082.4336-.19922.69434-.32715.7793-.21777-.04443-.4541-.26123-.71289-.65186q-4.79736-6.38305-2.05176-10.73144.78516-2.20679,3.53418-9.09082a13.85054,13.85054,0,0,1,1.43848-2.92139q2.94434-7.01293-.10059-11.18115-2.59131-3.91039-9.084-6.06983-9.55957.4314-15.08106.15479-5.65722.375-9.53906-6.33105c-.3457-.522-.45313-.82374-.32227-.91114.12793-.085.5625.00049,1.29883.26367Q777.46583,274.991,802.04492,273.041Zm-1.19043,31.71875-16.05566-24.22461,1.36719-.90625,16.05566,24.22461Z" transform="translate(-94.09471 -80.65259)"/></g></svg>